<?xml version="1.0" encoding="UTF-8" standalone="no"?>
<!DOCTYPE svg PUBLIC "-//W3C//DTD SVG 1.1//EN" "http://www.w3.org/Graphics/SVG/1.1/DTD/svg11.dtd">
<svg width="100%" height="100%" viewBox="0 0 860 722" version="1.1" xmlns="http://www.w3.org/2000/svg" xmlns:xlink="http://www.w3.org/1999/xlink" xml:space="preserve" xmlns:serif="http://www.serif.com/" style="fill-rule:evenodd;clip-rule:evenodd;stroke-linecap:round;stroke-linejoin:round;stroke-miterlimit:1.5;">
    <g transform="matrix(1,0,0,1,-1379.29,-262.045)">
        <g transform="matrix(1,0,0,1,-138.804,-9.18301)">
            <g transform="matrix(0.71404,0,0,0.805723,399.516,-557.787)">
                <path d="M1785.83,1893.18C1782.94,1896.98 1779.5,1900.04 1775.47,1902.26C1740.28,1921.67 1674.28,1869.57 1628.19,1785.99C1582.1,1702.41 1573.25,1618.8 1608.45,1599.39C1611.91,1597.48 1615.67,1596.26 1619.68,1595.7C1656.44,1590.54 1714.17,1640.3 1755.73,1715.66C1796.55,1789.68 1808.16,1863.74 1785.83,1893.18ZM2453.97,1287.56C2454.37,1287.29 2454.76,1287.02 2455.14,1286.76C2490.35,1262.22 2521.69,1252.37 2498.87,1165.67M2504.18,1372.8C2504.7,1372.59 2505.2,1372.38 2505.71,1372.18C2545.57,1356.28 2571.04,1335.53 2630.88,1402.29" style="fill:none;stroke:black;stroke-width:38.19px;"/>
            </g>
            <g transform="matrix(0.71404,0,0,0.805723,399.516,-557.787)">
                <path d="M1619.68,1595.7C1727.02,1578.8 1865.07,1553.53 2064.87,1468.09C2064.87,1468.09 2379.45,1338.54 2453.97,1287.56C2411.32,1187.89 2419.9,1089.24 2477.99,1057.21C2542.84,1021.45 2644.99,1082.17 2705.96,1192.72C2766.93,1303.28 2763.78,1422.07 2698.92,1457.83C2644.78,1487.69 2564.64,1450.3 2504.18,1372.8C2420.34,1407.22 2139.55,1598.29 2139.55,1598.29C1958.28,1718.12 1848.48,1813.31 1785.83,1893.18C1808.16,1863.74 1796.55,1789.68 1755.73,1715.66C1714.17,1640.3 1656.44,1590.54 1619.68,1595.7Z" style="fill:none;stroke:black;stroke-width:38.19px;"/>
            </g>
        </g>
    </g>
</svg>
