<?xml version="1.0" encoding="UTF-8" standalone="no"?>
<!DOCTYPE svg PUBLIC "-//W3C//DTD SVG 1.1//EN" "http://www.w3.org/Graphics/SVG/1.1/DTD/svg11.dtd">
<svg width="100%" height="100%" viewBox="0 0 1840 3190" version="1.1" xmlns="http://www.w3.org/2000/svg" xmlns:xlink="http://www.w3.org/1999/xlink" xml:space="preserve" xmlns:serif="http://www.serif.com/" style="fill-rule:evenodd;clip-rule:evenodd;stroke-linejoin:round;stroke-miterlimit:2;">
    <g transform="matrix(1,0,0,1,-1560.45,-159.322)">
        <path d="M2363.32,2471.13C2364.67,2512.56 2398.68,2545.73 2440.43,2545.73C2527.1,2545.73 2597.36,2475.47 2597.36,2388.81C2597.36,2258.09 2491.39,2152.13 2360.67,2152.13C2185.91,2152.13 2044.23,2293.8 2044.23,2468.57C2044.23,2687.39 2221.62,2864.78 2440.43,2864.78C2703.3,2864.78 2916.4,2651.68 2916.4,2388.81C2916.4,2081.89 2667.59,1833.08 2360.67,1833.08C2009.7,1833.08 1725.18,2117.6 1725.18,2468.57C1725.18,2863.59 2045.41,3183.82 2440.43,3183.82C2879.51,3183.82 3235.45,2827.88 3235.45,2388.81C3235.45,1979.72 2952.51,1636.68 2571.62,1544.84C2496.77,1526.79 2410.82,1502.17 2338.24,1474.79C2067.57,1372.66 1875.05,1111.22 1875.05,804.807C1875.05,448.316 2164.05,159.322 2520.54,159.322C2832.6,159.322 3085.58,412.299 3085.58,724.361C3085.58,991.995 2868.62,1208.95 2600.98,1208.95C2377.78,1208.95 2196.84,1028.01 2196.84,804.807C2196.84,626.032 2341.76,481.105 2520.54,481.105C2654.89,481.105 2763.79,590.015 2763.79,724.361L2760.49,757.086L2750.97,787.76L2735.94,815.448L2716.11,839.486L2692.07,859.317L2664.38,874.343L2633.71,883.865L2600.98,887.172C2555.53,887.172 2518.62,850.265 2518.62,804.807C2518.62,759.998 2554.48,723.498 2599.04,722.465C2598.04,679.972 2563.27,645.834 2520.54,645.834C2432.74,645.834 2361.57,717.009 2361.57,804.807C2361.57,937.035 2468.76,1044.23 2600.98,1044.23C2777.64,1044.23 2920.85,901.018 2920.85,724.361C2920.85,503.276 2741.62,324.051 2520.54,324.051C2255.02,324.051 2039.78,539.293 2039.78,804.807C2039.78,1040.73 2188,1242.03 2396.4,1320.66C2462.88,1345.75 2541.66,1368.17 2610.24,1384.7C3063.43,1493.98 3400.18,1902.06 3400.18,2388.81C3400.18,2918.86 2970.49,3348.55 2440.43,3348.55C1954.43,3348.55 1560.45,2954.57 1560.45,2468.57C1560.45,2026.62 1918.72,1668.35 2360.67,1668.35C2758.57,1668.35 3081.13,1990.91 3081.13,2388.81C3081.13,2742.66 2794.28,3029.51 2440.43,3029.51C2130.64,3029.51 1879.5,2778.37 1879.5,2468.57C1879.5,2202.83 2094.93,1987.4 2360.67,1987.4C2582.37,1987.4 2762.08,2167.12 2762.08,2388.81C2762.08,2566.45 2618.08,2710.46 2440.43,2710.46C2306.84,2710.46 2198.55,2602.16 2198.55,2468.57L2201.84,2435.99L2211.32,2405.44L2226.28,2377.87L2246.03,2353.93L2269.97,2334.18L2297.54,2319.22L2328.09,2309.74L2360.67,2306.45C2406.13,2306.45 2443.04,2343.35 2443.04,2388.81C2443.04,2433.38 2407.55,2469.74 2363.32,2471.13Z"/>
    </g>
</svg>
